<svg xmlns="http://www.w3.org/2000/svg" viewBox="0 0 48 48" x="0px" y="0px"><title>candy box</title><g data-name="Layer 2"><g><path d="M30,6a6,6,0,1,1-6-6A6,6,0,0,1,30,6ZM24,18a6,6,0,1,0,6,6A6,6,0,0,0,24,18Zm0,18a6,6,0,1,0,6,6A6,6,0,0,0,24,36ZM42,12a6,6,0,1,0-6-6A6,6,0,0,0,42,12Zm0,6a6,6,0,1,0,6,6A6,6,0,0,0,42,18Zm0,18a6,6,0,1,0,6,6A6,6,0,0,0,42,36ZM6,0a6,6,0,1,0,6,6A6,6,0,0,0,6,0ZM6,18a6,6,0,1,0,6,6A6,6,0,0,0,6,18ZM6,36a6,6,0,1,0,6,6A6,6,0,0,0,6,36Z"/></g></g><text x="0" y="63" fill="#000000" font-size="5px" font-weight="bold" font-family="'Helvetica Neue', Helvetica, Arial-Unicode, Arial, Sans-serif">Created by Vigneshwaran</text><text x="0" y="68" fill="#000000" font-size="5px" font-weight="bold" font-family="'Helvetica Neue', Helvetica, Arial-Unicode, Arial, Sans-serif">from the Noun Project</text></svg>